<svg width="26" height="26" viewBox="0 0 26 26" fill="none" xmlns="http://www.w3.org/2000/svg">
<path d="M19.5 6.5V17.55C19.5 19.3702 19.5 20.2802 19.1457 20.9755C18.8342 21.587 18.337 22.0842 17.7255 22.3958C17.0302 22.75 16.1202 22.75 14.3 22.75H11.7C9.87983 22.75 8.96974 22.75 8.27453 22.3958C7.663 22.0842 7.16582 21.587 6.85423 20.9755C6.5 20.2802 6.5 19.3702 6.5 17.55V6.5M4.33333 6.5H21.6667M17.3333 6.5L17.0402 5.62041C16.756 4.76802 16.6139 4.34183 16.3504 4.02673C16.1177 3.74847 15.8189 3.5331 15.4814 3.40035C15.0991 3.25 14.6499 3.25 13.7514 3.25H12.2486C11.3501 3.25 10.9009 3.25 10.5186 3.40035C10.1811 3.5331 9.88225 3.74847 9.64956 4.02673C9.38605 4.34183 9.244 4.76802 8.95986 5.62041L8.66667 6.5" stroke="#414141" stroke-opacity="0.7" stroke-width="2" stroke-linecap="round" stroke-linejoin="round"/>
</svg>
