<svg width="21" height="21" viewBox="0 0 21 21" fill="none" xmlns="http://www.w3.org/2000/svg">
<path d="M11.0961 15.3527C10.943 15.5201 10.7268 15.6154 10.5 15.6154C10.2732 15.6154 10.057 15.5201 9.90393 15.3527L5.59621 10.6412C5.29521 10.312 5.31809 9.80108 5.6473 9.50008C5.97653 9.19908 6.48741 9.22191 6.78841 9.55112L9.69231 12.7273V0.807692C9.69231 0.36162 10.0539 0 10.5 0C10.9461 0 11.3077 0.36162 11.3077 0.807692V12.7273L14.2116 9.55112C14.5126 9.22191 15.0235 9.19908 15.3527 9.50008C15.6819 9.80108 15.7048 10.312 15.4038 10.6412L11.0961 15.3527Z" fill="black"/>
<path d="M1.61539 13.7308C1.61539 13.2847 1.25378 12.9231 0.807693 12.9231C0.361621 12.9231 5.64257e-07 13.2847 5.64257e-07 13.7308V13.7899C-2.09742e-05 15.2627 -4.25898e-05 16.4498 0.125484 17.3835C0.255813 18.3528 0.534617 19.1689 1.18284 19.8171C1.83106 20.4654 2.64723 20.7442 3.61658 20.8745C4.55024 21 5.73735 21 7.21014 21H13.7899C15.2627 21 16.4498 21 17.3835 20.8745C18.3528 20.7442 19.1689 20.4654 19.8172 19.8171C20.4654 19.1689 20.7442 18.3528 20.8745 17.3835C21 16.4498 21 15.2627 21 13.7899V13.7308C21 13.2847 20.6384 12.9231 20.1923 12.9231C19.7462 12.9231 19.3846 13.2847 19.3846 13.7308C19.3846 15.2766 19.3829 16.3547 19.2736 17.1682C19.1673 17.9584 18.973 18.3768 18.6749 18.6749C18.3768 18.973 17.9584 19.1673 17.1682 19.2736C16.3547 19.3829 15.2766 19.3846 13.7308 19.3846H7.26923C5.72341 19.3846 4.64528 19.3829 3.83182 19.2736C3.04161 19.1673 2.62314 18.973 2.32509 18.6749C2.02704 18.3768 1.83271 17.9584 1.72647 17.1682C1.6171 16.3547 1.61539 15.2766 1.61539 13.7308Z" fill="black"/>
</svg>
