<svg width="24" height="24" viewBox="0 0 24 24" fill="none" xmlns="http://www.w3.org/2000/svg">
<path d="M22.0532 5.9334L11.7182 16.2683C10.6891 17.2975 7.63404 17.7742 6.95154 17.0917C6.26904 16.4092 6.73488 13.3542 7.76404 12.325L18.1099 1.9792C18.365 1.70085 18.6739 1.4771 19.018 1.32142C19.3619 1.16575 19.7339 1.08135 20.1115 1.0734C20.4889 1.06546 20.8642 1.13408 21.2144 1.27514C21.5647 1.4162 21.8827 1.6268 22.1493 1.89417C22.4159 2.16154 22.6257 2.48014 22.7658 2.83078C22.9058 3.18142 22.9735 3.55679 22.9645 3.93428C22.9556 4.31177 22.8701 4.68356 22.7135 5.02714C22.5569 5.37072 22.3323 5.67902 22.0532 5.9334Z" stroke="black" stroke-width="2" stroke-linecap="round" stroke-linejoin="round"/>
<path d="M10.9167 3.33334H5.50002C4.35074 3.33334 3.24862 3.78988 2.43595 4.60254C1.6233 5.41521 1.16669 6.5174 1.16669 7.66668V18.5C1.16669 19.6493 1.6233 20.7515 2.43595 21.5641C3.24862 22.3768 4.35074 22.8333 5.50002 22.8333H17.4167C19.8109 22.8333 20.6667 20.8833 20.6667 18.5V13.0833" stroke="black" stroke-width="2" stroke-linecap="round" stroke-linejoin="round"/>
</svg>
