<svg width="11" height="11" viewBox="0 0 11 11" fill="none" xmlns="http://www.w3.org/2000/svg">
<path d="M5.50045 1.38675C3.01494 1.38675 1 3.45268 1 6.00108C1 8.02732 2.27397 9.74892 4.04552 10.3689L4.07733 10.3785C4.30241 10.4219 4.38494 10.2794 4.38494 10.1566C4.38494 10.0471 4.38134 9.75661 4.37924 9.37229C3.12748 9.65076 2.86338 8.75319 2.86338 8.75319C2.77695 8.46856 2.59989 8.23471 2.3673 8.08117L2.3625 8.0784C1.95495 7.79223 2.39401 7.79808 2.39401 7.79808C2.69022 7.84085 2.93841 8.01901 3.08096 8.26886L3.08336 8.27348C3.24962 8.57965 3.56354 8.78335 3.92397 8.78335C4.09684 8.78335 4.2589 8.73658 4.39875 8.65442L4.39394 8.65688C4.41555 8.41349 4.52029 8.19871 4.67875 8.03993L4.67905 8.03963C3.67968 7.92424 2.629 7.5273 2.629 5.75954C2.629 5.75123 2.6287 5.74169 2.6287 5.73215C2.6287 5.26413 2.80486 4.83827 3.09297 4.52041L3.09207 4.52164C3.03114 4.35487 2.99573 4.16224 2.99573 3.96131C2.99573 3.72223 3.04555 3.49483 3.13528 3.2899L3.13108 3.30036C3.13108 3.30036 3.50802 3.17667 4.36874 3.77331C4.70606 3.67453 5.0935 3.61761 5.49385 3.61761C5.89419 3.61761 6.28164 3.67453 6.64897 3.78069L6.61896 3.77331C7.47397 3.17667 7.85091 3.30036 7.85091 3.30036C7.93644 3.49791 7.98626 3.72807 7.98626 3.97024C7.98626 4.16778 7.95325 4.35733 7.89233 4.53334L7.89593 4.52164C8.18193 4.83919 8.3575 5.26506 8.3575 5.73307C8.3575 5.74261 8.3575 5.75184 8.3572 5.76108V5.75954C8.3572 7.53222 7.30531 7.92239 6.30384 8.03593C6.49351 8.23502 6.61056 8.50734 6.61056 8.80796C6.61056 8.83658 6.60936 8.8652 6.60726 8.8935L6.60756 8.88981C6.60756 9.50737 6.60185 10.0034 6.60185 10.1532C6.60185 10.2745 6.68048 10.4185 6.91127 10.3723C8.72033 9.748 10 8.02486 10 5.99493C10 3.4496 7.98746 1.38644 5.50525 1.38644C5.50345 1.38644 5.50135 1.38644 5.49955 1.38644H5.49985L5.50045 1.38675Z" fill="white" stroke="white"/>
</svg>
