<svg width="10" height="10" viewBox="0 0 10 10" fill="none" xmlns="http://www.w3.org/2000/svg">
<path d="M4.99999 7.67441C5.19264 7.67441 5.34883 7.51822 5.34883 7.32557V4.53487C5.34883 4.34222 5.19264 4.18604 4.99999 4.18604C4.80734 4.18604 4.65115 4.34222 4.65115 4.53487V7.32557C4.65115 7.51822 4.80734 7.67441 4.99999 7.67441Z" fill="black"/>
<path d="M5 2.67444C5.25688 2.67444 5.46511 2.88268 5.46511 3.13955C5.46511 3.39643 5.25688 3.60467 5 3.60467C4.74311 3.60467 4.53488 3.39643 4.53488 3.13955C4.53488 2.88268 4.74311 2.67444 5 2.67444Z" fill="black"/>
<path fill-rule="evenodd" clip-rule="evenodd" d="M0 5C0 2.23858 2.23858 0 5 0C7.76144 0 10 2.23858 10 5C10 7.76144 7.76144 10 5 10C2.23858 10 0 7.76144 0 5ZM5 0.697674C2.62389 0.697674 0.697674 2.62389 0.697674 5C0.697674 7.37609 2.62389 9.30233 5 9.30233C7.37609 9.30233 9.30233 7.37609 9.30233 5C9.30233 2.62389 7.37609 0.697674 5 0.697674Z" fill="black"/>
</svg>
