<svg width="11" height="11" viewBox="0 0 11 11" fill="none" xmlns="http://www.w3.org/2000/svg">
<path d="M1 2.25C1 6.5302 4.4698 10 8.75 10C8.9431 10 9.13455 9.99295 9.32415 9.97905C9.5417 9.9631 9.65045 9.95515 9.7495 9.89815C9.8315 9.85095 9.90925 9.76725 9.95035 9.682C10 9.5791 10 9.45905 10 9.219V7.81035C10 7.60845 10 7.5075 9.96675 7.421C9.93745 7.34455 9.88975 7.2765 9.82795 7.2228C9.758 7.162 9.6631 7.1275 9.4734 7.0585L7.87 6.47545C7.64925 6.3952 7.53885 6.35505 7.43415 6.36185C7.3418 6.36785 7.25295 6.3994 7.17745 6.4529C7.09185 6.51355 7.03145 6.61425 6.9106 6.8157L6.5 7.5C5.17505 6.89995 4.10095 5.82445 3.5 4.5L4.18432 4.08941C4.38573 3.96856 4.48643 3.90814 4.5471 3.82253C4.6006 3.74704 4.63215 3.65818 4.63815 3.56585C4.64495 3.46113 4.6048 3.35076 4.52455 3.13002L3.94149 1.5266C3.8725 1.33688 3.83801 1.24201 3.77721 1.17205C3.72351 1.11025 3.65545 1.06258 3.57901 1.03323C3.49248 1 3.39154 1 3.18966 1H1.781C1.54094 1 1.4209 1 1.31799 1.04963C1.23275 1.09073 1.14907 1.1685 1.10185 1.25051C1.04484 1.34953 1.03687 1.45831 1.02094 1.67586C1.00706 1.86543 1 2.05689 1 2.25Z" stroke="white" stroke-linecap="round" stroke-linejoin="round"/>
</svg>
