<svg width="26" height="26" viewBox="0 0 26 26" fill="none" xmlns="http://www.w3.org/2000/svg">
<path fill-rule="evenodd" clip-rule="evenodd" d="M13 24.375C6.71775 24.375 1.625 19.2806 1.625 13C1.625 6.71937 6.71775 1.625 13 1.625C19.2822 1.625 24.375 6.71937 24.375 13C24.375 19.2806 19.2822 24.375 13 24.375ZM13 0C5.81994 0 0 5.8175 0 13C0 20.1825 5.81994 26 13 26C20.1801 26 26 20.1825 26 13C26 5.8175 20.1801 0 13 0ZM17.875 12.1875H13.8125V8.125C13.8125 7.67812 13.4493 7.3125 13 7.3125C12.5507 7.3125 12.1875 7.67812 12.1875 8.125V12.1875H8.125C7.67569 12.1875 7.3125 12.5531 7.3125 13C7.3125 13.4469 7.67569 13.8125 8.125 13.8125H12.1875V17.875C12.1875 18.3219 12.5507 18.6875 13 18.6875C13.4493 18.6875 13.8125 18.3219 13.8125 17.875V13.8125H17.875C18.3243 13.8125 18.6875 13.4469 18.6875 13C18.6875 12.5531 18.3243 12.1875 17.875 12.1875Z" fill="#414141"/>
</svg>
