<?xml version="1.0" encoding="iso-8859-1"?>
<!-- Uploaded to: SVG Repo, www.svgrepo.com, Generator: SVG Repo Mixer Tools -->
<svg height="800px" width="800px" version="1.1" id="Layer_1" xmlns="http://www.w3.org/2000/svg" xmlns:xlink="http://www.w3.org/1999/xlink" 
	 viewBox="0 0 512 512" xml:space="preserve">
<polygon style="fill:#FFE6B8;" points="431.28,10.199 80.72,10.199 80.72,501.801 347.283,501.801 431.28,417.803 "/>
<g>
	<polygon style="fill:#FFAD61;" points="431.28,417.803 347.283,501.801 347.209,417.731 	"/>
	<path style="fill:#FFAD61;" d="M162.748,92.009c0.339,5.191,3.002,10.019,7.364,12.853c5.384,3.498,12.308,3.498,17.694,0
		c4.362-2.834,7.026-7.662,7.364-12.853l1.284-19.698c0.659-10.11-7.364-18.674-17.496-18.674l0,0
		c-10.132,0-18.155,8.563-17.496,18.674L162.748,92.009z"/>
</g>
<path style="fill:#BCC987;" d="M232.279,159.044c-2.391-13.195-12.69-23.259-25.475-25.666c-1.924-0.362-3.903-0.553-5.921-0.553
	h-6.712l0,0c-8.401,8.401-22.023,8.401-30.424,0l0,0h-6.712c-2.017,0-3.997,0.191-5.922,0.553
	c-12.785,2.407-23.084,12.472-25.475,25.666l-2.229,12.302h111.097L232.279,159.044z"/>
<g>
	<path style="fill:#4D3D36;" d="M431.279,0H80.721c-5.633,0-10.199,4.566-10.199,10.199v491.602c0,5.633,4.566,10.199,10.199,10.199
		h266.562c2.705,0,5.298-1.075,7.212-2.987l83.997-83.998c1.912-1.912,2.987-4.506,2.987-7.212V10.199
		C441.479,4.566,436.912,0,431.279,0z M90.92,232.542h0.873c5.633,0,10.199-4.566,10.199-10.199s-4.566-10.199-10.199-10.199H90.92
		V20.398h330.161v191.752c-5.565,0.08-10.053,4.609-10.053,10.192s4.489,10.113,10.052,10.192v175.064l-73.862-0.067
		c-0.003,0-0.006,0-0.009,0c-2.705,0-5.298,1.075-7.212,2.987c-1.914,1.915-2.989,4.513-2.987,7.221l0.067,73.862H90.92V232.542z
		 M357.419,427.939l49.257,0.045l-49.213,49.212L357.419,427.939z"/>
	<path style="fill:#4D3D36;" d="M269.484,86.745h55.833c5.632,0,10.199-4.566,10.199-10.199c0-5.633-4.567-10.199-10.199-10.199
		h-55.833c-5.632,0-10.199,4.566-10.199,10.199C259.285,82.179,263.851,86.745,269.484,86.745z"/>
	<path style="fill:#4D3D36;" d="M269.484,133.602H390.63c5.632,0,10.199-4.566,10.199-10.199c0-5.633-4.567-10.199-10.199-10.199
		H269.484c-5.632,0-10.199,4.566-10.199,10.199C259.285,129.036,263.851,133.602,269.484,133.602z"/>
	<path style="fill:#4D3D36;" d="M269.484,180.526H390.63c5.632,0,10.199-4.566,10.199-10.199c0-5.633-4.567-10.199-10.199-10.199
		H269.484c-5.632,0-10.199,4.566-10.199,10.199C259.285,175.96,263.851,180.526,269.484,180.526z"/>
	<path style="fill:#4D3D36;" d="M129.53,268.291c-5.633,0-10.199,4.566-10.199,10.199s4.566,10.199,10.199,10.199h120.805
		c5.633,0,10.199-4.566,10.199-10.199s-4.566-10.199-10.199-10.199H129.53z"/>
	<path style="fill:#4D3D36;" d="M391.649,309.543H129.53c-5.633,0-10.199,4.566-10.199,10.199s4.566,10.199,10.199,10.199h262.12
		c5.632,0,10.199-4.566,10.199-10.199S397.281,309.543,391.649,309.543z"/>
	<path style="fill:#4D3D36;" d="M391.649,350.853H129.53c-5.633,0-10.199,4.566-10.199,10.199c0,5.633,4.566,10.199,10.199,10.199
		h262.12c5.632,0,10.199-4.566,10.199-10.199C401.849,355.419,397.281,350.853,391.649,350.853z"/>
	<path style="fill:#4D3D36;" d="M239.681,421.227h-8.614c-5.633,0-10.199,4.566-10.199,10.199s4.566,10.199,10.199,10.199h8.614
		c5.633,0,10.199-4.566,10.199-10.199S245.314,421.227,239.681,421.227z"/>
	<path style="fill:#4D3D36;" d="M195.825,421.227H129.53c-5.633,0-10.199,4.566-10.199,10.199s4.566,10.199,10.199,10.199h66.295
		c5.633,0,10.199-4.566,10.199-10.199S201.457,421.227,195.825,421.227z"/>
	<path style="fill:#4D3D36;" d="M152.57,92.672c0.553,8.471,5.033,16.225,11.985,20.742c4.374,2.843,9.389,4.263,14.403,4.263
		c5.014,0,10.029-1.421,14.403-4.263c6.953-4.517,11.433-12.272,11.985-20.742l1.285-19.698c0.497-7.623-2.213-15.192-7.436-20.766
		c-5.223-5.574-12.599-8.771-20.237-8.771c-7.638,0-15.015,3.197-20.237,8.771s-7.933,13.143-7.436,20.766L152.57,92.672z
		 M173.607,66.156c1.401-1.496,3.301-2.319,5.352-2.319c2.05,0,3.95,0.824,5.352,2.319c1.401,1.495,2.1,3.445,1.966,5.491
		l-1.285,19.698c-0.136,2.081-1.161,3.935-2.743,4.963c-1.999,1.298-4.581,1.297-6.581,0c-1.582-1.028-2.607-2.883-2.743-4.963l0,0
		l-1.285-19.698C171.508,69.602,172.205,67.652,173.607,66.156z"/>
	<path style="fill:#4D3D36;" d="M123.41,181.546h111.097c3.023,0,5.89-1.341,7.828-3.662c1.938-2.32,2.747-5.381,2.208-8.356
		l-2.229-12.302c-3.089-17.054-16.601-30.666-33.624-33.872c-2.57-0.483-5.196-0.728-7.807-0.728h-6.712
		c-2.705,0-5.299,1.075-7.212,2.987c-2.137,2.137-4.978,3.314-8,3.314s-5.864-1.177-8-3.314c-1.912-1.912-4.507-2.987-7.212-2.987
		h-6.712c-2.611,0-5.237,0.245-7.809,0.729c-17.021,3.206-30.533,16.816-33.623,33.871l-2.229,12.302
		c-0.539,2.975,0.269,6.035,2.208,8.356C117.52,180.205,120.387,181.546,123.41,181.546z M135.675,160.863
		c1.593-8.793,8.556-15.81,17.325-17.461c1.329-0.25,2.685-0.377,4.035-0.377h2.948c11.209,8.383,26.744,8.383,37.953,0h2.948
		c1.348,0,2.706,0.127,4.034,0.376c8.77,1.651,15.733,8.669,17.326,17.462l0.052,0.285h-86.672L135.675,160.863z"/>
	<path style="fill:#4D3D36;" d="M357.875,232.542c5.632,0,10.199-4.566,10.199-10.199s-4.567-10.199-10.199-10.199h-12.67
		c-5.632,0-10.199,4.566-10.199,10.199s4.567,10.199,10.199,10.199H357.875z"/>
	<path style="fill:#4D3D36;" d="M319.862,232.542c5.632,0,10.199-4.566,10.199-10.199s-4.567-10.199-10.199-10.199h-12.67
		c-5.632,0-10.199,4.566-10.199,10.199s4.567,10.199,10.199,10.199H319.862z"/>
	<path style="fill:#4D3D36;" d="M140.003,222.343c0-5.633-4.566-10.199-10.199-10.199h-12.67c-5.633,0-10.199,4.566-10.199,10.199
		s4.566,10.199,10.199,10.199h12.67C135.437,232.542,140.003,227.976,140.003,222.343z"/>
	<path style="fill:#4D3D36;" d="M231.169,212.143c-5.633,0-10.199,4.566-10.199,10.199s4.566,10.199,10.199,10.199h12.67
		c5.633,0,10.199-4.566,10.199-10.199s-4.566-10.199-10.199-10.199H231.169z"/>
	<path style="fill:#4D3D36;" d="M205.828,232.542c5.633,0,10.199-4.566,10.199-10.199s-4.566-10.199-10.199-10.199h-12.67
		c-5.633,0-10.199,4.566-10.199,10.199s4.566,10.199,10.199,10.199H205.828z"/>
	<path style="fill:#4D3D36;" d="M383.215,212.143c-5.632,0-10.199,4.566-10.199,10.199s4.567,10.199,10.199,10.199h12.672
		c5.632,0,10.199-4.566,10.199-10.199s-4.567-10.199-10.199-10.199H383.215z"/>
	<path style="fill:#4D3D36;" d="M269.18,232.542h12.67c5.632,0,10.199-4.566,10.199-10.199s-4.567-10.199-10.199-10.199h-12.67
		c-5.632,0-10.199,4.566-10.199,10.199S263.547,232.542,269.18,232.542z"/>
	<path style="fill:#4D3D36;" d="M167.817,232.542c5.633,0,10.199-4.566,10.199-10.199s-4.566-10.199-10.199-10.199h-12.67
		c-5.633,0-10.199,4.566-10.199,10.199s4.566,10.199,10.199,10.199H167.817z"/>
</g>
</svg>